<?xml version="1.0" encoding="utf-8"?>
<!-- Generator: Adobe Illustrator 19.0.0, SVG Export Plug-In . SVG Version: 6.00 Build 0)  -->
<svg version="1.1" id="Selfmade_by_NICF-Nettie" xmlns="http://www.w3.org/2000/svg" xmlns:xlink="http://www.w3.org/1999/xlink"
	 x="0px" y="0px" viewBox="0 0 910.7 227.3" style="enable-background:new 0 0 910.7 227.3;" xml:space="preserve">
<g id="Ad_Astra">
	<g>
		<polygon points="584.5,122.2 605.9,122.2 605.9,188.2 618.1,188.2 618.1,122.2 639.5,122.2 639.5,111.5 584.5,111.5 		"/>
		<path d="M202.1,114.5c-5.1-2.1-10.9-3-17.3-3h-18.8v76.7h18.8c6.4,0,12.2-1,17.3-3c5-1.9,9.3-4.8,12.7-8.5
			c6.3-6.7,9.6-16,9.6-26.9c0-10.9-3.3-20.2-9.6-26.9C211.4,119.2,207.1,116.3,202.1,114.5z M205.6,168.6c-4.7,5-11.6,7.5-20.8,7.5
			h-6.4v-52.7h6.4c9.2,0,16.1,2.5,20.8,7.5c4.2,4.4,6.4,11,6.4,18.8C212,157.6,209.8,164.2,205.6,168.6z"/>
		<path d="M38,188.2h13.6l6.7-16.4h28.1l6.7,16.4h13.5L72.4,108L38,188.2z M62.8,161l9.6-23.4L82,161H62.8z"/>
		<path d="M843.4,108l-34.1,80.2h13.5l6.7-16.4h27.9l6.7,16.4h13.4L843.4,108z M833.9,161l9.5-23.4l9.5,23.4H833.9z"/>
		<path d="M522,152c-1.7-1.6-4.1-3.7-6-5.6l-13.3-12.3c-3.3-3.1-3.4-5.5-3-6.9c0.6-2.2,3-3.9,5.8-4.4c2.3-0.4,6.4-0.4,10.5,4.3
			l9.8-7.5c-3.1-3.6-6.8-6.2-10.8-7.8c-3.9-1.3-7.9-1.7-11.8-0.8c-3.5,0.6-6.9,2.2-9.6,4.3c-2.9,2.4-4.9,5.3-5.9,8.6
			c-1,3.1-0.9,6.5,0.2,9.7c1.1,3.3,3.1,6.4,6.1,9.2l9.8,8.9c0.4,0.4,6.2,5.9,9.8,9.1c2.3,2.1,4.7,5.2,3.7,8.7
			c-1,3.1-4.3,5.7-8.4,6.4c-2.4,0.5-4.9,0.3-7.3-0.6c-2.9-1-5.6-3.1-7.8-6l-9.9,7.4c3.8,4.6,8.2,7.9,13.2,9.8c3,1.1,6.2,1.7,9.4,1.7
			c1.6,0,3.2-0.1,4.8-0.4c8.7-1.7,15.7-7.5,17.9-15c1.1-3.5,1-7.2-0.2-10.8C527.8,158.4,525.4,155,522,152z"/>
		<path d="M742.8,153.1c3.9-4.3,5.8-10.3,5.8-17.1s-1.9-12.7-5.8-17.1c-2.9-3.3-8.5-7.3-18-7.3h-34.6l7.5,10.4h27.1
			c4.7,0,8.2,1.4,10.5,4c2.6,3,3.2,7.2,3.2,10.1c0,3-0.6,7.2-3.2,10.2c-2.3,2.6-5.8,3.9-10.5,3.9h-12.3l10.9,14.7l0,0l17.8,23.5
			h13.5l-21.9-28.8C737.6,157.9,740.8,155.4,742.8,153.1z"/>
		<path d="M361,188.2h13.6l6.7-16.4h28l6.7,16.4h13.5L395.3,108L361,188.2z M385.7,161l9.6-23.4l9.6,23.4H385.7z"/>
	</g>
</g>
<g id="Brad_Pitt">
	<g>
		<path d="M244.2,61.4V31.6h6.3c1.6,0,2.9,0.2,4.1,0.5c1.1,0.4,2.1,0.9,2.8,1.5c0.7,0.7,1.3,1.4,1.7,2.3c0.4,0.9,0.5,1.9,0.5,2.9
			c0,1.3-0.3,2.5-0.9,3.6c-0.6,1.1-1.6,2-2.9,2.7c4.2,1.4,6.3,4,6.3,7.7c0,1.1-0.2,2.2-0.6,3.2c-0.4,1-1.1,2-1.9,2.7
			c-0.8,0.8-1.8,1.4-3,1.9c-1.2,0.5-2.6,0.7-4.2,0.7H244.2z M247.2,44.1h2c1.1,0,2.1-0.1,3-0.2c0.9-0.2,1.6-0.5,2.2-0.9
			c0.7-0.4,1.2-1,1.6-1.8c0.4-0.7,0.6-1.5,0.6-2.3c0-1.3-0.5-2.4-1.4-3.2c-0.9-0.8-2.3-1.2-4-1.2h-3.9V44.1z M247.2,58.5h3.6
			c0.6,0,1.3,0,1.9-0.1c0.6-0.1,1.2-0.1,1.7-0.2c0.5,0,1-0.2,1.6-0.5c0.5-0.3,1-0.7,1.5-1.1c0.5-0.5,0.8-1,1.1-1.6
			c0.3-0.6,0.4-1.3,0.4-2.1c0-1-0.3-1.9-0.8-2.7c-0.5-0.9-1.2-1.5-2.1-2c-0.9-0.5-1.9-0.8-3-0.9c-1.1-0.1-2.4-0.2-3.8-0.2h-2V58.5z"
			/>
		<path d="M298.2,31.6h6.8c1.6,0,2.9,0.1,4.1,0.2c1.2,0.1,2.1,0.3,2.8,0.6c1.5,0.6,2.8,1.5,3.6,2.8c0.9,1.3,1.3,2.7,1.3,4.4
			c0,0.7-0.1,1.4-0.2,1.9s-0.4,1.1-0.7,1.8c-0.8,1.6-1.9,2.7-3.4,3.3c-1.5,0.6-3.5,1-6,1l10.7,13.9h-3.7l-10.7-13.9h-1.7v13.9h-3
			V31.6z M301.2,34.5v10.1c0.8,0,1.7,0,2.5,0c0.8,0,1.6,0,2.4,0c1.3,0,2.4-0.1,3.4-0.2s1.8-0.5,2.4-1c0.6-0.4,1-1,1.3-1.7
			c0.3-0.7,0.5-1.4,0.5-2.2c0-1.5-0.5-2.7-1.6-3.6c-1-0.9-2.7-1.4-4.9-1.4H301.2z"/>
		<path d="M365.6,31.6l13.9,29.8h-3.2l-4.7-9.8h-12.9l-4.6,9.8h-3.3l14.1-29.8H365.6z M365.2,37.9L360,48.7h10.2L365.2,37.9z"/>
		<path d="M413.7,31.6h7.3c1.7,0,3.2,0.1,4.8,0.2c1.5,0.2,3,0.5,4.5,1.1c1.3,0.6,2.5,1.3,3.6,2.2c1.1,0.9,2,1.9,2.7,3.1
			c0.7,1.2,1.3,2.5,1.7,4c0.4,1.5,0.6,3,0.6,4.6c0,2.1-0.3,4.1-1,5.9c-0.6,1.8-1.6,3.3-2.8,4.6c-1.2,1.3-2.8,2.3-4.6,3
			s-3.9,1.1-6.3,1.1h-10.4V31.6z M421.1,58.5c1.4,0,2.7,0,3.9-0.1s2.3-0.3,3.3-0.5c1-0.3,1.9-0.6,2.7-1.1c0.8-0.5,1.5-1.1,2.2-2
			c1.7-2.1,2.6-4.8,2.6-7.9c0-3.1-0.8-5.7-2.5-7.9c-0.7-0.9-1.5-1.7-2.4-2.2c-0.9-0.6-1.9-1-3-1.4c-1.1-0.3-2.3-0.6-3.7-0.7
			c-1.4-0.1-2.8-0.2-4.4-0.2h-3v24H421.1z"/>
		<path d="M516.3,31.6h6.9c1.6,0,2.9,0.1,4.1,0.2c1.1,0.1,2.1,0.3,2.8,0.6c1.5,0.6,2.7,1.5,3.6,2.8c0.9,1.3,1.3,2.7,1.3,4.4
			c0,1.4-0.3,2.7-0.9,3.8s-1.5,2-2.5,2.7c-1.1,0.7-2.3,1.1-3.9,1.2s-3.3,0.2-5.4,0.2h-2.9v13.9h-3V31.6z M519.3,34.5v10.1
			c0.9,0,1.7,0,2.5,0c0.8,0,1.6,0,2.4,0c1.3,0,2.4-0.1,3.4-0.2c1-0.1,1.8-0.5,2.5-1c0.5-0.4,0.9-1,1.3-1.7c0.3-0.7,0.5-1.4,0.5-2.2
			c0-0.8-0.2-1.5-0.5-2.2s-0.8-1.3-1.3-1.7c-0.7-0.5-1.4-0.8-2.3-0.9c-0.9-0.1-1.9-0.2-3.1-0.2H519.3z"/>
		<path d="M570.4,31.6h3v29.8h-3V31.6z"/>
		<path d="M607.3,34.5v-2.9h16.3v2.9H617v26.9h-3V34.5H607.3z"/>
		<path d="M654.8,34.5v-2.9h16.3v2.9h-6.6v26.9h-3V34.5H654.8z"/>
	</g>
</g>
</svg>
